<?xml version="1.0" standalone="no"?>
<!DOCTYPE svg PUBLIC "-//W3C//DTD SVG 20010904//EN"
 "http://www.w3.org/TR/2001/REC-SVG-20010904/DTD/svg10.dtd">
<svg version="1.0" xmlns="http://www.w3.org/2000/svg"
 width="1280.000000pt" height="742.000000pt" viewBox="0 0 1280.000000 742.000000"
 preserveAspectRatio="xMidYMid meet">
<metadata>
Created by potrace 1.15, written by Peter Selinger 2001-2017
</metadata>
<g transform="translate(0.000000,742.000000) scale(0.100000,-0.100000)"
fill="#000000" stroke="none">
<path d="M6265 7409 c-368 -37 -626 -97 -828 -193 -107 -52 -147 -94 -147
-156 0 -21 -7 -57 -16 -81 -17 -49 -22 -111 -23 -271 -1 -124 3 -118 -106
-141 -389 -85 -436 -100 -460 -148 -22 -41 -18 -89 10 -134 13 -22 25 -48 25
-57 0 -29 69 -97 107 -107 26 -7 57 -6 110 4 55 11 93 12 146 5 40 -5 102 -10
139 -10 59 0 67 -2 61 -17 -4 -9 -21 -29 -38 -45 -18 -15 -41 -52 -53 -83 -21
-53 -21 -67 -16 -322 3 -146 9 -276 14 -288 5 -14 5 -37 -1 -57 -16 -59 -11
-121 17 -177 l27 -52 -114 -117 c-156 -160 -289 -307 -331 -367 -51 -71 -140
-254 -176 -360 -50 -146 -93 -382 -95 -514 -3 -153 -1 -154 171 -65 246 128
360 204 413 276 17 24 29 34 25 23 -46 -152 -166 -658 -181 -764 -35 -239 -48
-711 -20 -740 11 -11 23 -9 76 18 59 30 89 38 89 25 0 -3 -18 -27 -40 -52 -71
-80 -116 -193 -159 -393 -11 -52 -34 -135 -51 -183 -39 -109 -70 -231 -70
-274 0 -59 70 -167 142 -218 77 -56 513 -296 648 -358 55 -25 76 -44 166 -144
l47 -52 -26 -70 c-42 -115 -140 -243 -214 -282 -37 -19 -42 -42 -18 -88 25
-49 74 -78 151 -91 197 -32 203 -29 320 135 94 133 136 208 153 276 18 68 61
161 95 203 27 34 28 39 14 53 -8 9 -34 20 -56 25 -71 16 -152 61 -213 117 -33
30 -59 58 -59 62 0 5 12 23 26 40 35 41 23 69 -41 100 -61 30 -110 73 -224
198 -51 57 -113 118 -137 135 -24 18 -43 38 -44 45 0 7 17 36 38 65 95 129
271 423 364 608 l78 155 166 12 c91 7 175 17 185 23 24 12 118 22 218 23 l74
1 13 -45 c10 -32 11 -55 4 -80 -6 -19 -10 -62 -10 -94 0 -52 5 -69 42 -130
122 -208 180 -289 335 -468 51 -60 93 -111 93 -115 0 -4 -34 -74 -75 -154 -72
-142 -151 -330 -175 -419 -16 -61 -116 -288 -146 -331 -41 -59 -23 -77 86 -85
35 -3 67 -7 69 -10 13 -12 -42 -224 -75 -295 -20 -43 -34 -83 -32 -90 2 -6 33
-22 68 -34 36 -12 115 -45 175 -73 122 -56 191 -72 306 -72 97 0 170 15 208
43 104 77 130 100 146 131 23 43 12 61 -49 77 -99 26 -204 113 -281 233 l-32
51 23 69 c29 84 37 97 116 184 33 37 114 135 179 219 66 83 144 178 174 210
129 136 157 286 102 548 -8 39 -20 97 -27 130 -7 33 -39 140 -71 238 -32 98
-59 180 -59 183 0 2 21 4 48 4 63 0 105 27 139 91 15 29 38 71 50 93 30 54 30
120 1 166 -16 26 -21 48 -20 85 2 28 -9 147 -24 265 -18 149 -28 282 -31 435
-5 213 -4 219 13 204 110 -95 182 -146 263 -189 53 -28 112 -60 132 -71 42
-23 64 -17 84 21 11 22 15 70 14 212 -1 201 -8 238 -62 359 -37 80 -53 155
-63 289 -8 115 -37 263 -68 346 -71 196 -87 237 -112 286 -43 85 -108 170
-185 242 -58 53 -100 81 -203 132 -120 58 -137 64 -203 66 -84 3 -87 7 -53 96
21 55 27 156 10 167 -6 4 -10 59 -10 134 0 136 -12 196 -56 283 -13 26 -24 51
-24 56 0 5 60 16 133 25 202 25 331 65 410 127 27 22 57 100 57 150 0 54 -31
132 -70 174 -52 57 -119 77 -281 86 -70 4 -131 10 -136 13 -12 8 -169 29 -220
29 -29 1 -44 6 -49 17 -4 9 -10 114 -14 234 -6 193 -9 221 -26 245 -25 35
-145 94 -259 128 -85 26 -102 28 -325 30 -129 1 -275 -2 -325 -7z m635 -72
c121 -37 216 -81 231 -109 8 -14 14 -72 16 -153 l3 -130 -23 61 c-71 186 -145
239 -412 294 -306 63 -448 53 -905 -61 -151 -38 -284 -69 -295 -69 -11 -1 -44
-9 -73 -19 -84 -29 -46 -5 62 39 192 78 399 128 646 154 215 23 217 24 450 21
200 -2 221 -4 300 -28z m257 -539 c-3 -8 -6 -5 -6 6 -1 11 2 17 5 13 3 -3 4
-12 1 -19z m633 -155 c25 -9 53 -23 64 -32 58 -51 80 -183 40 -238 -11 -15
-41 -39 -65 -52 l-44 -24 22 24 c92 101 60 232 -77 321 -41 27 -42 29 -15 23
17 -4 50 -13 75 -22z m-3011 -226 c-15 -12 -32 -31 -38 -42 -9 -18 -10 -18
-11 -2 0 21 43 67 62 67 7 0 1 -10 -13 -23z m571 -322 c0 -14 -4 -25 -10 -25
-5 0 -10 11 -10 25 0 14 5 25 10 25 6 0 10 -11 10 -25z m138 -648 l53 -61 -28
-14 c-15 -8 -39 -24 -53 -34 l-25 -20 -12 64 c-6 35 -12 86 -12 113 0 43 2 47
12 31 7 -10 36 -46 65 -79z m1693 -34 c-6 -21 -11 -63 -11 -93 l0 -55 -35 -1
c-20 0 -34 2 -32 5 20 38 59 132 69 163 15 51 23 33 9 -19z m-1598 -69 c3 -4
-8 -34 -25 -67 -18 -37 -32 -83 -35 -117 l-5 -55 -57 -1 c-61 0 -109 -20 -196
-82 l-50 -36 35 37 c19 21 50 45 70 55 26 13 42 32 65 79 32 66 87 130 145
168 38 26 44 28 53 19z m28 -105 c-5 -19 -12 -69 -16 -111 -4 -43 -11 -78 -16
-78 -17 0 -9 118 12 175 23 61 34 69 20 14z m1359 -130 c-7 -11 -14 -18 -17
-15 -8 8 5 36 17 36 7 0 7 -6 0 -21z m481 -5 c10 -13 10 -17 -2 -25 -25 -16
-36 -10 -31 16 5 29 14 31 33 9z m-560 -207 c-6 -73 -22 -197 -35 -275 -21
-127 -27 -147 -52 -173 -15 -16 -29 -27 -31 -25 -2 1 13 47 32 100 48 132 54
165 65 330 5 77 12 157 17 176 13 63 15 3 4 -133z m349 118 c7 -9 8 -15 2 -15
-5 0 -12 7 -16 15 -3 8 -4 15 -2 15 2 0 9 -7 16 -15z m-2146 -157 c-4 -7 -25
-35 -45 -63 -80 -107 -243 -374 -280 -457 -79 -180 -139 -380 -139 -466 0 -85
86 -121 168 -70 32 20 71 83 72 117 0 18 128 332 140 344 4 5 13 -8 20 -30 7
-21 25 -61 41 -90 26 -48 28 -55 19 -109 -7 -44 -17 -66 -42 -92 -48 -49 -173
-129 -342 -217 l-149 -78 7 89 c9 117 30 236 62 359 65 250 159 432 308 593
54 59 112 124 129 145 30 36 45 49 31 25z m1841 -155 c-4 -38 -13 -81 -21 -98
l-14 -30 5 30 c16 107 28 165 32 165 3 0 2 -30 -2 -67z m-1245 -73 c28 -69 69
-158 90 -197 22 -40 38 -73 36 -73 -6 0 -73 105 -96 151 -19 37 -90 232 -90
248 0 11 11 -12 60 -129z m884 -256 c9 -39 -16 -104 -39 -104 -8 0 -20 12 -26
28 -9 22 -6 36 16 82 28 57 36 56 49 -6z m-262 -87 c-18 -17 -23 -18 -36 -7
-21 17 -20 29 6 57 l22 24 14 -27 c13 -24 12 -28 -6 -47z m1532 51 c9 -12 14
-24 12 -26 -9 -8 -46 19 -46 33 0 22 17 18 34 -7z m-2059 -24 c9 -15 12 -23 6
-20 -11 7 -35 46 -28 46 3 0 12 -12 22 -26z m670 -44 c-3 -5 -21 -9 -38 -9
l-32 1 30 8 c43 11 47 11 40 0z m1378 -41 c-13 -274 2 -337 112 -445 80 -79
187 -140 265 -150 42 -6 70 2 133 34 4 2 7 -28 7 -67 0 -83 -13 -96 -64 -66
-17 10 -65 37 -106 58 -109 59 -174 112 -309 255 -170 179 -160 154 -106 256
32 61 45 98 45 127 0 28 4 39 13 36 7 -2 11 -18 10 -38z m-1595 9 c2 -10 -6
-17 -23 -20 -27 -6 -34 9 -13 30 15 15 32 10 36 -10z m-98 -8 c0 -5 -4 -10 -9
-10 -6 0 -13 5 -16 10 -3 6 1 10 9 10 9 0 16 -4 16 -10z m-50 -50 c0 -5 -5
-10 -11 -10 -5 0 -7 5 -4 10 3 6 8 10 11 10 2 0 4 -4 4 -10z m-940 -180 c-6
-11 -12 -20 -14 -20 -2 0 -2 9 1 20 3 11 9 20 15 20 5 0 4 -9 -2 -20z m56
-111 c-19 -20 -40 -47 -46 -59 -21 -39 -21 -14 1 56 28 90 27 89 55 63 l24
-22 -34 -38z m2628 -181 l3 -103 -13 76 c-16 99 -46 167 -95 215 -21 21 -39
45 -39 54 1 8 33 -20 72 -62 l70 -77 2 -103z m-2730 -90 c-24 -80 -28 -67 -7
23 10 40 20 65 22 54 1 -10 -5 -45 -15 -77z m-114 -708 c0 -53 -4 -90 -10 -90
-11 0 -14 162 -3 173 12 13 13 7 13 -83z m1507 -269 c10 -16 9 -20 -10 -25
-43 -11 -49 -7 -30 19 22 30 25 30 40 6z m1248 -191 c3 -5 -1 -10 -9 -10 -9 0
-16 5 -16 10 0 6 4 10 9 10 6 0 13 -4 16 -10z m-300 -20 c8 -13 -5 -13 -25 0
-13 8 -13 10 2 10 9 0 20 -4 23 -10z m-2601 -840 c9 -49 61 -115 136 -176 73
-59 86 -73 48 -53 -115 60 -208 167 -208 237 0 33 17 27 24 -8z m1066 -355 c0
-12 -19 -12 -23 0 -4 9 -1 12 9 8 7 -3 14 -7 14 -8z m-503 -75 c28 -16 55 -35
59 -42 4 -6 -8 -2 -27 9 -19 12 -50 30 -69 42 -54 32 -22 25 37 -9z m1472
-224 c-14 -75 -4 -130 31 -169 l28 -32 -22 -26 c-20 -24 -23 -25 -93 -16 l-72
9 38 76 c21 43 51 110 66 150 16 39 30 71 32 69 1 -2 -2 -30 -8 -61z m-730 3
c36 -13 37 -16 13 -46 l-17 -23 -22 40 c-23 43 -22 45 26 29z m-524 -489 c-3
-10 -1 -36 4 -57 6 -20 9 -39 6 -41 -9 -10 -46 12 -65 37 l-20 29 38 25 c45
32 45 31 37 7z m1334 -206 c29 -30 50 -54 46 -54 -3 0 -32 14 -63 30 -31 17
-74 37 -94 44 l-38 15 27 51 26 50 21 -41 c12 -23 45 -66 75 -95z m594 40 c26
-9 47 -21 47 -28 0 -7 -19 -26 -42 -43 -24 -18 -56 -42 -71 -54 l-28 -21 26
38 c21 30 26 48 23 82 -2 23 -3 42 -2 42 0 0 21 -7 47 -16z"/>
<path d="M1980 7293 c-118 -20 -450 -90 -655 -138 -33 -8 -95 -21 -139 -30
-90 -19 -277 -88 -377 -141 -94 -50 -173 -135 -195 -212 -16 -53 -16 -63 0
-157 20 -115 53 -244 67 -261 6 -8 -5 -23 -38 -50 -58 -47 -232 -198 -364
-316 -75 -68 -101 -98 -115 -134 -40 -104 42 -162 204 -144 48 5 84 3 127 -8
44 -11 90 -13 176 -9 l116 6 26 -61 27 -60 -31 6 c-18 3 -41 6 -52 6 -19 0
-19 2 7 29 29 31 30 61 2 61 -17 0 -82 -74 -108 -123 -22 -39 -23 -87 -3 -113
20 -27 18 -48 -6 -70 -39 -35 -62 -93 -54 -138 4 -23 8 -76 9 -118 2 -72 4
-80 33 -110 29 -31 30 -35 17 -63 -20 -45 -17 -108 5 -137 11 -13 36 -33 56
-43 45 -25 42 -43 -19 -135 -24 -36 -66 -105 -94 -155 -28 -49 -72 -128 -99
-175 -27 -47 -86 -166 -130 -265 -45 -99 -130 -279 -188 -400 -137 -282 -152
-326 -173 -507 -13 -120 -14 -157 -4 -204 14 -71 52 -121 110 -146 56 -25 101
-19 156 20 23 16 61 39 86 52 106 53 183 142 259 297 27 54 72 136 100 182 28
47 54 102 58 123 3 21 8 37 10 34 9 -9 -19 -254 -35 -301 -26 -77 -25 -462 2
-559 16 -58 18 -88 13 -195 -4 -69 -15 -168 -26 -220 -11 -52 -17 -100 -14
-107 8 -20 48 -17 144 11 128 38 128 38 50 -72 -37 -54 -101 -149 -141 -211
l-72 -112 4 -69 c7 -128 115 -300 332 -530 63 -66 132 -147 154 -180 55 -82
105 -206 95 -234 -4 -12 -7 -80 -8 -152 -1 -159 -16 -205 -77 -236 -41 -21
-72 -62 -87 -117 -5 -18 -28 -55 -50 -83 -76 -96 -57 -114 123 -114 130 0 132
0 201 35 54 27 96 61 183 148 71 71 120 128 132 155 24 56 44 179 35 223 -8
45 -41 80 -60 64 -11 -9 -11 -17 1 -45 21 -52 17 -57 -22 -30 -75 51 -152 45
-216 -15 -31 -30 -49 -40 -75 -40 -31 0 -33 2 -33 35 0 35 0 35 45 35 47 0
267 73 338 113 48 27 61 72 54 187 -8 119 -73 309 -186 543 -50 103 -91 194
-91 202 0 8 30 47 66 87 41 46 82 106 109 160 24 48 72 123 106 168 l62 80
101 0 c56 1 155 9 221 18 l120 17 17 35 c12 23 39 48 80 73 77 47 87 47 83 2
-3 -34 32 -131 85 -236 13 -24 65 -86 118 -139 118 -118 142 -155 142 -215 0
-63 -71 -195 -104 -195 -13 0 -38 -10 -56 -22 -27 -19 -39 -41 -72 -133 -56
-158 -88 -298 -92 -407 -2 -75 -7 -100 -26 -131 -32 -53 -38 -155 -16 -248 17
-69 17 -72 -4 -141 -25 -84 -22 -107 22 -133 29 -18 52 -20 208 -21 112 0 192
-5 223 -13 58 -16 121 -9 157 17 15 11 43 25 64 30 55 16 120 57 147 94 47 64
99 156 99 176 0 30 -10 33 -87 23 -104 -13 -333 -2 -333 16 0 8 -16 21 -35 29
-23 9 -33 19 -28 27 4 6 7 21 7 32 1 24 53 88 79 98 16 6 20 18 32 88 4 28 24
53 99 125 81 78 99 102 134 177 57 123 143 250 223 334 77 79 99 121 99 187 0
38 -8 58 -56 127 -30 45 -80 112 -110 150 -71 89 -86 117 -122 219 -16 47 -53
123 -81 169 -28 46 -51 88 -51 93 0 4 38 8 84 8 108 0 114 7 97 94 -11 56 -11
68 4 95 25 50 29 121 12 243 -9 62 -18 208 -21 323 -10 367 -33 520 -101 663
-26 55 -39 72 -55 72 -28 0 -26 -25 10 -97 17 -33 39 -93 49 -134 19 -76 46
-315 39 -359 -3 -23 -72 243 -119 459 -11 52 -22 97 -24 101 -2 3 -13 29 -24
58 l-20 51 71 21 c64 20 72 20 86 6 18 -18 10 -23 -43 -28 -22 -2 -30 -8 -30
-23 0 -18 7 -20 66 -20 57 0 69 -3 100 -29 57 -49 115 -69 214 -74 85 -4 96
-2 165 27 41 18 82 35 89 40 24 12 31 61 20 130 -10 66 -63 216 -80 226 -5 4
-9 23 -9 43 0 53 -24 135 -53 185 -31 53 -171 188 -213 205 -22 10 -42 34 -74
89 -55 97 -90 136 -145 163 -24 11 -49 28 -56 36 -20 24 -69 46 -91 41 -10 -3
-35 1 -54 9 -38 16 -38 15 11 80 57 75 96 189 114 336 15 125 -11 198 -70 198
-46 0 -69 27 -69 81 0 54 -16 106 -41 134 -28 31 -59 121 -59 171 0 36 -5 50
-26 69 -14 13 -35 27 -45 30 -16 5 -19 16 -19 63 0 64 -25 116 -61 127 -19 6
-15 11 37 39 98 53 227 136 262 170 76 71 91 149 42 211 -17 21 -30 41 -30 46
0 18 -57 73 -95 90 -71 33 -260 22 -383 -21 -31 -11 -56 -19 -57 -17 -1 1 -14
43 -30 92 -32 105 -47 138 -86 183 -16 18 -29 40 -29 48 0 24 -28 71 -47 79
-67 26 -278 42 -363 28z m259 -57 c49 -9 79 -20 88 -32 20 -28 16 -33 -19 -23
-18 5 -79 12 -134 16 -112 6 -211 -7 -414 -57 -63 -15 -173 -42 -245 -60 -90
-22 -165 -49 -244 -86 -62 -30 -117 -51 -123 -48 -20 13 -62 -9 -121 -64 -34
-32 -89 -76 -122 -99 -81 -55 -132 -113 -141 -160 -5 -23 -1 -77 9 -138 10
-55 17 -130 17 -167 l0 -67 -46 -38 c-25 -21 -78 -67 -117 -102 -40 -35 -101
-86 -137 -113 -106 -79 -148 -155 -121 -214 l11 -24 -67 0 c-76 0 -103 16
-103 62 0 41 45 85 363 353 58 50 119 100 134 112 24 18 26 24 16 41 -6 11 -9
29 -6 40 3 12 -2 42 -10 69 -17 51 -42 178 -51 254 -4 34 0 57 18 95 63 137
264 230 706 329 608 136 699 149 859 121z m696 -377 c25 -6 49 -17 55 -24 7
-9 -13 -7 -67 6 -43 10 -96 19 -118 19 -37 0 -145 -34 -237 -74 -59 -25 -49 5
10 33 94 43 266 63 357 40z m-183 -576 c14 -13 18 -31 18 -90 0 -40 -4 -73 -8
-73 -5 0 -16 30 -25 68 -9 37 -19 77 -23 90 -8 27 11 30 38 5z m198 -453 c0
-5 -2 -10 -4 -10 -3 0 -8 5 -11 10 -3 6 -1 10 4 10 6 0 11 -4 11 -10z m-161
-208 c-15 -53 -5 -89 31 -110 36 -21 37 -29 5 -76 -29 -42 -29 -47 -10 -99 12
-35 11 -43 -9 -88 l-22 -50 -39 50 c-41 51 -60 65 -76 55 -14 -8 -11 -40 5
-53 7 -6 34 -38 59 -70 l47 -59 -53 -17 c-28 -9 -57 -21 -64 -26 -15 -13 -20
5 -33 130 -14 141 -13 145 13 156 30 13 125 204 133 268 4 30 10 45 16 39 6
-6 5 -25 -3 -50z m305 -18 c3 -9 6 -35 6 -59 0 -42 -1 -43 -27 -36 -30 8 -30
7 -18 69 8 42 28 56 39 26z m-2137 -216 c90 -133 215 -248 271 -248 22 0 24
-3 17 -27 -3 -16 -9 -74 -12 -131 l-5 -103 -22 20 c-25 24 -87 51 -116 51 -11
0 -20 2 -20 6 0 3 18 32 40 64 39 57 47 80 34 93 -13 13 -42 -14 -91 -85 -47
-68 -102 -132 -109 -126 -1 2 1 21 4 43 12 67 4 95 -27 106 l-28 10 28 53 c16
29 32 74 35 99 6 42 5 47 -18 58 -24 10 -25 15 -24 95 0 46 1 82 2 81 1 -1 19
-28 41 -59z m2118 -40 c-9 -34 -23 -78 -31 -96 l-13 -33 -21 21 c-11 11 -20
23 -20 26 0 13 95 162 98 154 2 -4 -4 -37 -13 -72z m-2385 -36 c0 -5 -12 -19
-26 -33 l-27 -24 17 33 c15 29 36 43 36 24z m205 -135 c-8 -20 -17 -37 -18
-37 -8 0 7 76 17 82 17 11 18 -5 1 -45z m-195 -49 c0 -5 -7 -23 -16 -40 -20
-38 -35 -25 -28 24 5 29 10 35 25 31 10 -3 19 -10 19 -15z m595 -78 c-8 -33
-14 -45 -14 -29 -1 25 18 93 24 87 2 -2 -3 -28 -10 -58z m1688 -62 c-18 -20
-18 -20 -24 4 -13 45 -11 50 16 32 25 -16 25 -17 8 -36z m-2083 -20 c0 -36
-15 -67 -26 -55 -7 6 14 87 23 87 1 0 3 -15 3 -32z m2331 -61 c27 -18 115
-144 118 -168 1 -6 -82 -51 -84 -46 0 1 -6 14 -13 30 -6 15 -23 32 -37 37 -15
6 -34 28 -47 55 -21 43 -21 46 -5 80 9 19 21 35 25 35 5 0 24 -10 43 -23z
m-656 -284 c-14 -71 -35 -160 -47 -200 -20 -70 -21 -71 -45 -60 -29 13 -44 0
-89 -76 -30 -51 -57 -68 -75 -50 -9 9 37 62 125 141 50 46 83 106 100 182 24
112 51 210 54 200 2 -5 -8 -67 -23 -137z m-1208 -130 c4 -19 1 -23 -18 -23
-18 0 -34 15 -61 56 -48 72 -55 112 -33 171 l18 46 44 -114 c25 -63 47 -124
50 -136z m1117 -191 c8 -13 -60 -108 -98 -137 -35 -27 -135 -70 -143 -61 -8 7
37 86 49 86 6 0 19 -7 28 -15 29 -27 65 -4 107 70 36 64 47 74 57 57z m-1520
-94 c17 -24 21 -58 8 -58 -8 0 -34 26 -61 63 -12 15 -11 17 12 17 15 0 32 -9
41 -22z m1276 15 c0 -18 -41 -73 -54 -73 -7 0 -21 11 -30 25 -16 24 -16 25 16
39 37 16 68 20 68 9z m-226 -68 c-12 -25 -24 -51 -26 -57 -3 -9 -12 -8 -31 5
-29 19 -35 37 -13 37 7 0 31 13 52 29 21 16 40 30 40 30 1 1 -9 -19 -22 -44z
m1721 -37 c21 -73 19 -79 -18 -44 -31 29 -32 33 -23 68 12 46 21 41 41 -24z
m-1600 7 c23 -25 39 -48 35 -50 -11 -7 -142 -37 -145 -33 -4 5 54 128 61 128
4 0 26 -20 49 -45z m-225 -50 l34 -35 -31 0 c-39 0 -77 29 -68 53 10 26 27 21
65 -18z m-1510 -142 c-4 -21 -28 -81 -53 -133 -25 -52 -73 -171 -107 -265 -34
-93 -84 -226 -112 -295 -62 -153 -71 -224 -38 -285 12 -22 29 -53 38 -69 9
-17 31 -35 55 -44 l40 -16 -28 -8 c-64 -17 -128 42 -141 129 -8 58 13 257 37
346 11 40 80 196 154 347 73 151 138 287 144 303 15 38 20 34 11 -10z m253
-317 c3 -8 -1 -17 -10 -20 -20 -8 -25 -3 -17 18 8 20 20 21 27 2z m2608 -1098
l7 -28 -69 0 c-71 0 -86 10 -47 31 65 35 99 34 109 -3z m-2372 -166 c45 -41
99 -67 186 -88 39 -10 93 -25 120 -35 l50 -18 -65 0 c-98 -1 -223 -19 -314
-45 -45 -13 -82 -23 -83 -22 -2 1 3 36 11 77 8 41 17 106 21 144 7 69 8 70 23
45 9 -14 32 -40 51 -58z m1574 8 c-24 -22 -153 -87 -153 -77 1 12 20 28 105
85 43 29 51 32 53 17 2 -9 0 -21 -5 -25z m-203 -138 l0 -29 -124 -16 c-158
-22 -286 -23 -286 -3 0 11 28 15 143 18 129 3 147 6 197 30 70 33 70 33 70 0z
m-600 -24 c0 -4 -10 -14 -21 -22 -20 -13 -24 -13 -44 2 l-23 17 21 6 c28 8 67
7 67 -3z m-624 -100 c-18 -29 -37 -68 -41 -86 -4 -22 -32 -58 -82 -109 -81
-81 -78 -74 31 82 87 126 116 165 121 165 3 0 -10 -24 -29 -52z m324 48 c0
-11 -19 -15 -25 -6 -3 5 1 10 9 10 9 0 16 -2 16 -4z m270 -261 c0 -9 -69 -115
-75 -115 -3 0 8 27 25 60 17 33 35 60 40 60 6 0 10 -2 10 -5z m-815 -126 c-22
-61 -18 -130 10 -205 14 -37 29 -72 34 -78 19 -26 93 -169 84 -163 -6 4 -41
52 -78 106 -112 167 -130 248 -75 334 16 26 32 47 34 47 3 0 -1 -19 -9 -41z
m2660 -22 c25 -44 31 -80 18 -114 -5 -13 -12 3 -24 52 -9 39 -20 78 -24 88
-14 33 4 17 30 -26z m-1750 -966 c-7 -31 -38 -61 -63 -61 -8 0 1 18 22 42 20
23 36 46 36 51 0 6 3 8 6 4 3 -3 3 -19 -1 -36z m-369 -8 c-7 -7 -26 7 -26 19
0 6 6 6 15 -2 9 -7 13 -15 11 -17z m1907 -303 c-42 -72 -49 -81 -95 -111 -54
-36 -59 -36 -52 1 9 43 -4 96 -30 127 l-24 29 113 -1 114 0 -26 -45z m-1909
-25 c-4 -8 -10 -15 -15 -15 -5 0 -9 7 -9 15 0 8 7 15 15 15 9 0 12 -6 9 -15z
m1272 -100 c41 -20 74 -40 74 -45 0 -23 -209 -6 -224 18 -3 5 3 29 12 54 l16
46 24 -19 c14 -10 58 -35 98 -54z m-1466 -279 c0 -4 -10 -6 -22 -2 -13 3 -29
6 -36 6 -9 0 -8 7 5 24 l18 25 17 -22 c10 -12 18 -26 18 -31z"/>
<path d="M10380 7280 c-199 -15 -373 -50 -590 -121 -146 -47 -201 -77 -227
-124 -30 -52 -29 -102 3 -193 14 -40 35 -133 47 -205 11 -73 26 -135 31 -139
8 -5 7 -11 0 -18 -9 -9 -17 -8 -31 1 -17 10 -35 5 -124 -38 -57 -27 -132 -72
-167 -98 -147 -111 -210 -267 -135 -337 22 -20 37 -23 167 -29 133 -7 236 -17
236 -24 0 -2 -7 -32 -16 -66 -10 -39 -14 -82 -11 -111 5 -42 2 -54 -29 -105
-49 -82 -76 -158 -82 -236 -4 -60 -2 -70 17 -91 21 -22 21 -27 10 -88 -15 -84
-6 -136 27 -148 l24 -9 -30 -59 c-35 -70 -39 -116 -10 -132 14 -8 26 -8 40 0
24 13 26 29 4 45 -15 10 -14 17 11 66 15 30 45 75 66 101 43 52 47 63 23 76
-12 7 -27 3 -52 -14 -56 -39 -65 -33 -57 33 11 86 18 98 77 126 29 13 66 36
82 51 15 15 29 26 30 24 16 -25 87 -113 154 -190 65 -77 79 -98 63 -98 -37 0
-182 -95 -321 -210 -116 -95 -160 -152 -275 -355 -37 -65 -107 -179 -156 -251
-220 -328 -269 -463 -269 -729 0 -107 16 -267 31 -312 23 -70 93 -92 171 -52
51 26 215 184 288 278 30 38 55 69 56 68 1 -1 -9 -63 -22 -137 -14 -74 -31
-175 -39 -225 -19 -127 -33 -190 -60 -270 -13 -38 -29 -108 -35 -154 -11 -82
-9 -116 12 -217 9 -42 8 -60 -6 -100 -32 -94 -20 -107 100 -118 38 -4 112 -12
165 -18 l97 -11 -51 -66 c-28 -36 -120 -134 -204 -218 -149 -148 -153 -153
-153 -194 0 -106 206 -515 385 -764 79 -109 146 -222 193 -327 35 -78 55 -88
156 -77 33 3 62 5 63 5 7 -5 -61 -184 -74 -193 -28 -21 -34 -15 -17 19 9 17
24 55 34 84 16 46 17 54 4 65 -21 17 -36 -1 -63 -77 -25 -69 -71 -119 -116
-127 -16 -3 -52 -11 -80 -18 -27 -7 -83 -12 -124 -13 -69 -1 -75 -3 -95 -29
-46 -61 -15 -213 58 -289 52 -54 79 -61 206 -55 173 10 326 60 433 141 24 18
80 52 125 75 45 24 109 68 143 99 78 73 78 85 5 256 -42 99 -53 133 -45 147 6
12 6 32 0 56 -37 151 -70 256 -117 375 -43 110 -114 352 -114 390 0 4 31 23
68 42 82 41 208 156 239 217 38 74 130 292 144 339 16 57 13 55 44 34 25 -16
30 -16 79 -1 29 10 66 17 83 17 25 0 143 26 204 45 12 4 21 -9 38 -57 13 -35
83 -185 158 -333 l136 -270 -62 -147 c-33 -80 -61 -153 -61 -162 0 -8 -48 -79
-107 -157 -139 -183 -146 -194 -138 -219 4 -12 40 -55 81 -96 41 -40 74 -76
74 -80 0 -3 -18 -26 -40 -51 -43 -50 -55 -90 -46 -155 9 -61 8 -67 -5 -124
-10 -43 -10 -59 2 -90 12 -34 24 -44 89 -76 41 -21 126 -50 188 -67 77 -20
134 -42 180 -69 114 -69 241 -82 341 -35 48 23 129 103 137 135 5 23 0 34 -28
60 -84 80 -149 127 -230 168 -87 43 -112 65 -123 111 -6 27 20 58 94 112 62
45 95 111 98 198 1 60 8 80 45 151 72 136 192 322 278 431 52 66 85 119 95
150 l14 48 -89 177 c-111 219 -176 427 -204 655 l-6 47 93 0 c131 0 144 19 82
120 -27 45 -35 68 -35 106 0 28 -8 62 -17 79 -15 26 -18 72 -21 374 l-4 345
37 -32 c46 -41 140 -88 284 -142 135 -50 177 -57 234 -40 83 24 106 38 129 82
20 38 23 56 22 158 -1 136 -20 225 -96 444 -53 154 -71 186 -211 379 -82 113
-100 131 -172 180 -33 22 -155 136 -271 254 -235 237 -235 237 -203 330 32 89
22 218 -19 266 -14 15 -14 23 -3 50 14 35 26 262 16 314 -8 45 -62 99 -113
112 -23 7 -42 14 -42 17 0 3 12 26 27 52 23 39 27 57 26 109 -2 65 -21 116
-49 127 -9 4 -32 2 -50 -4 -32 -11 -54 -7 -54 9 0 4 35 12 78 18 42 5 133 29
200 53 104 36 130 50 166 86 92 92 76 190 -39 239 -11 5 -129 11 -262 15 -293
6 -278 0 -341 148 -64 152 -88 302 -60 379 15 42 5 61 -43 85 -59 28 -673 55
-899 38z m635 -60 c94 -6 189 -13 212 -16 l41 -5 -5 -92 c-8 -143 34 -300 113
-424 l34 -53 -94 0 c-90 0 -96 1 -115 26 -19 24 -21 40 -20 138 0 61 5 136 9
166 25 147 24 153 -7 182 -64 59 -157 67 -603 48 -124 -5 -299 -12 -390 -14
l-165 -5 75 19 c187 47 456 56 915 30z m947 -650 c59 -17 80 -58 58 -116 l-10
-26 -28 40 c-27 39 -68 78 -107 100 -18 10 -16 11 15 12 19 0 52 -5 72 -10z
m-402 -354 c0 -3 -4 -8 -10 -11 -5 -3 -10 -1 -10 4 0 6 5 11 10 11 6 0 10 -2
10 -4z m118 -101 c3 -37 0 -41 -29 -52 -18 -7 -34 -12 -35 -10 -1 1 -4 23 -6
49 -6 50 1 58 47 55 16 -2 21 -10 23 -42z m-30 -137 c-20 -28 -23 -30 -26 -14
-3 11 4 26 14 33 31 23 36 14 12 -19z m86 -128 c30 -11 56 -62 56 -107 -1 -23
-9 -32 -42 -48 -78 -39 -132 -152 -93 -195 25 -28 39 -25 85 16 22 20 40 31
40 24 0 -26 -34 -81 -62 -101 -19 -14 -28 -28 -26 -42 4 -28 34 -33 60 -10 19
17 20 17 39 -6 22 -27 26 -127 8 -179 -9 -28 -13 -30 -31 -21 -15 8 -24 7 -39
-7 -10 -9 -19 -23 -19 -31 0 -17 -4 -17 -85 11 -84 30 -180 42 -217 27 -33
-12 -36 -1 -8 24 45 40 152 197 176 256 25 61 35 128 49 330 l7 87 38 -9 c20
-5 50 -13 64 -19z m-2117 -42 c-3 -8 -6 -5 -6 6 -1 11 2 17 5 13 3 -3 4 -12 1
-19z m30 -259 l21 -47 -49 -32 c-28 -18 -60 -45 -71 -61 -37 -49 -52 -39 -45
30 8 72 36 151 79 216 l32 50 7 -55 c3 -30 15 -76 26 -101z m2096 43 c-36 -44
-61 -56 -43 -21 19 36 64 82 68 69 3 -7 -9 -28 -25 -48z m-1679 -538 c16 -11
21 -28 23 -79 2 -35 10 -85 18 -110 l13 -45 -34 29 c-70 62 -124 86 -190 85
-115 -1 -219 -77 -345 -249 -38 -53 -79 -95 -120 -124 l-62 -44 33 59 c102
179 169 254 349 388 118 88 142 102 194 111 20 4 40 12 43 17 5 8 22 0 78 -38z
m1722 -552 c-2 -1 -20 1 -42 6 -42 9 -64 43 -50 78 7 17 13 12 51 -31 24 -27
42 -51 41 -53z m-518 -34 c-12 -29 -40 -84 -61 -121 -102 -182 -135 -216 -232
-242 -99 -25 -172 -18 -177 18 -4 30 -26 32 -39 3 -7 -14 -16 -23 -20 -20 -9
5 8 52 28 73 11 13 15 12 31 -2 10 -9 25 -17 34 -17 18 0 50 35 73 79 l17 35
15 -30 c43 -82 81 -87 118 -14 26 52 34 57 52 39 21 -21 67 37 123 153 55 115
81 145 38 46z m-878 -54 c32 -41 56 -83 62 -107 11 -52 26 -69 50 -61 24 7 53
-18 79 -68 24 -47 24 -48 -4 -48 -39 0 -113 55 -143 107 -24 39 -104 225 -104
239 0 10 10 0 60 -62z m-1286 -384 c-11 -61 -29 -114 -69 -196 -30 -62 -55
-119 -55 -128 0 -8 -4 -17 -8 -20 -12 -7 3 111 22 179 17 55 114 260 121 253
2 -2 -3 -41 -11 -88z m599 -252 c-3 -18 -11 -46 -18 -63 -11 -28 -14 -30 -73
-30 l-61 0 25 43 c16 26 23 50 19 62 -6 18 -2 20 54 20 l61 0 -7 -32z m-159
-3 c-9 -14 -18 -25 -19 -25 -1 0 -5 11 -7 25 -4 21 -1 25 19 25 23 0 23 -1 7
-25z m-74 -45 c-1 -95 -307 -449 -412 -475 -63 -16 -82 33 -93 235 -5 87 -4
102 7 86 29 -44 73 -88 99 -102 69 -35 173 0 252 85 47 50 97 139 97 173 0 9
3 23 6 32 9 24 44 -3 44 -34z m2574 -520 c1 -297 0 -310 -16 -289 -35 42 -49
120 -58 329 -6 113 -11 214 -13 224 -1 14 7 22 30 28 18 5 35 13 39 19 3 6 8
8 11 5 3 -3 6 -145 7 -316z m521 172 c-2 -2 -25 4 -50 14 l-46 17 36 13 c20 7
40 15 43 19 4 4 10 -8 14 -27 3 -18 5 -34 3 -36z m-449 -749 c7 -10 14 -26 14
-35 0 -15 -9 -18 -62 -18 -34 0 -59 2 -57 5 9 8 84 64 88 64 2 1 10 -7 17 -16z
m-171 -155 c34 -261 132 -560 235 -725 71 -112 67 -137 -58 -292 -56 -69 -238
-353 -277 -431 -23 -46 -22 -45 -40 -30 -19 16 -71 16 -91 -1 -8 -6 -14 -9
-14 -5 0 3 41 74 91 158 140 231 229 420 240 510 16 120 13 334 -5 401 -35
129 -107 228 -245 339 -43 34 -43 35 -27 60 15 23 65 45 141 61 40 9 43 7 50
-45z m-2554 -54 l24 -26 -30 4 c-22 2 -31 9 -33 26 -4 29 9 28 39 -4z m1848
-161 c-16 -37 -20 -61 -16 -106 3 -32 4 -57 2 -55 -14 14 -75 182 -68 188 8 9
42 16 80 19 l22 1 -20 -47z m-1454 28 c22 -5 76 -12 119 -16 l80 -7 -85 -28
c-142 -46 -253 -105 -303 -161 -102 -113 -118 -304 -41 -481 6 -15 2 -18 -28
-18 -39 0 -41 -5 -50 -100 -3 -32 -8 -26 -64 90 -61 125 -103 236 -103 271 0
10 73 91 163 181 89 90 180 189 202 220 42 61 47 63 110 49z m1591 -461 c31
-56 54 -103 51 -106 -3 -3 -15 14 -28 38 -12 23 -37 71 -56 106 -19 34 -32 62
-29 62 2 0 30 -45 62 -100z m-1001 -89 c-24 -21 -99 -71 -108 -71 -17 0 26 41
63 61 38 19 61 25 45 10z m835 -692 c-11 -35 -23 -92 -26 -126 -4 -35 -9 -63
-13 -63 -3 0 -22 19 -42 42 l-36 42 66 87 c36 48 67 87 68 85 1 -1 -6 -31 -17
-67z m-1410 -94 c45 -76 126 -172 174 -207 l39 -28 -51 0 c-43 0 -54 4 -71 26
-12 15 -21 33 -21 41 0 17 -39 95 -90 179 -22 35 -40 67 -40 71 0 9 33 -36 60
-82z m594 -116 c5 -24 2 -27 -23 -31 l-28 -4 20 33 c22 38 22 38 31 2z m33
-196 c61 -133 79 -191 67 -211 -13 -20 -131 -112 -145 -112 -6 0 -5 8 2 21 6
12 22 53 35 92 39 113 29 213 -25 261 -27 25 -27 36 3 36 19 0 29 -14 63 -87z
m1183 -89 c0 -19 -10 -17 -37 5 -31 26 -29 32 7 20 17 -6 30 -17 30 -25z
m-290 -291 c0 -5 -106 39 -128 53 -30 20 -46 56 -38 89 6 25 9 24 86 -57 44
-46 80 -84 80 -85z m-1742 70 c-30 -52 -31 -53 -23 -13 9 44 13 50 30 50 11 0
9 -9 -7 -37z m2407 -94 c5 -14 1 -27 -9 -37 -15 -15 -16 -13 -16 21 0 40 15
50 25 16z"/>
</g>
</svg>
